# xmcd
# 
# Track frame offsets:
#     150
#     11587
#     24144
#     33535
#     45047
#     53705
#     66017
#     76687
#     86946
#     96749
#     108421
#     122486
#     134486
#     147441
#     157880
# 
# Disc length: 2270
# 
# Revision: 2
# Processed by: cddbd v1.5.2PL0 Copyright (c) Steve Scherf et al.
# Submitted via: fre:ac v1.0.31
# 
DISCID=ba08dc0f
DTITLE=Time/Life - Golden Age of Country - Hard To Find Hits Disc 1
DYEAR=2009
DGENRE=Country
TTITLE0=Red Sovine and Webb Pierce - Why Baby Why
TTITLE1=Red Foley - Chattanoogie Shoe Shine Boy
TTITLE2=Burl Ives - A Little Bitty Tear
TTITLE3=Ernest Tubb - Thanks a Lot
TTITLE4=Webb Pierce - I Ain't Never
TTITLE5=Hankshaw Hawkins - Lonesome 7-7203
TTITLE6=Dave Dudley - Six Days on the Road
TTITLE7=Loretta Lynn - I'm a Honky Tonk Girl
TTITLE8=Ned Miller - From a Jack to a King
TTITLE9=Leon Ashley - Laura (What's He Got That I Ain't Got?)
TTITLE10=Johnny Wright - Hello Vietnam
TTITLE11=Bobby Edwards - Your'e the Reason
TTITLE12=Jack Greene - Statue of a Fool
TTITLE13=Warner Mack - The Bridge Washed Out
TTITLE14=Bill Anderson and Jan Howard - For Loving You
EXTD=
EXTT0=
EXTT1=
EXTT2=
EXTT3=
EXTT4=
EXTT5=
EXTT6=
EXTT7=
EXTT8=
EXTT9=
EXTT10=
EXTT11=
EXTT12=
EXTT13=
EXTT14=
PLAYORDER=
